<svg width="48" height="48" viewBox="0 0 48 48" fill="none" xmlns="http://www.w3.org/2000/svg">
<rect width="48" height="48" rx="15" fill="#FEEFEE"/>
<g clip-path="url(#clip0_201_2031)">
<path d="M32.7265 24.4084C30.8948 19.6484 24.3732 19.3917 25.9482 12.4734C26.0648 11.96 25.5165 11.5634 25.0732 11.8317C20.8382 14.3284 17.7932 19.3334 20.3482 25.89C20.5582 26.4267 19.9282 26.9284 19.4732 26.5784C17.3615 24.98 17.1398 22.6817 17.3265 21.0367C17.3965 20.43 16.6032 20.1384 16.2648 20.64C15.4715 21.8534 14.6665 23.8134 14.6665 26.765C15.1098 33.2984 20.6282 35.305 22.6115 35.5617C25.4465 35.9234 28.5148 35.3984 30.7198 33.38C33.1465 31.1284 34.0332 27.535 32.7265 24.4084ZM21.8998 30.2767C23.5798 29.8684 24.4432 28.655 24.6765 27.5817C25.0615 25.9134 23.5565 24.28 24.5715 21.6434C24.9565 23.825 28.3865 25.19 28.3865 27.57C28.4798 30.5217 25.2832 33.0534 21.8998 30.2767Z" fill="#EE5D50"/>
</g>
<defs>
<clipPath id="clip0_201_2031">
<rect width="28" height="28" fill="white" transform="translate(10 10)"/>
</clipPath>
</defs>
</svg>
